<svg width="24" height="24" viewBox="0 0 24 24" fill="none" xmlns="http://www.w3.org/2000/svg">
  <path d="M9 5H7C6.44772 5 6 5.44772 6 6V20C6 20.5523 6.44772 21 7 21H17C17.5523 21 18 20.5523 18 20V6C18 5.44772 17.5523 5 17 5H15" stroke="currentColor" stroke-width="2" stroke-linecap="round" stroke-linejoin="round"/>
  <path d="M9 5C9 4.44772 9.44772 4 10 4H14C14.5523 4 15 4.44772 15 5V6H9V5Z" stroke="currentColor" stroke-width="2" stroke-linecap="round" stroke-linejoin="round"/>
  <path d="M9 9H15" stroke="currentColor" stroke-width="2" stroke-linecap="round"/>
  <path d="M9 13H15" stroke="currentColor" stroke-width="2" stroke-linecap="round"/>
  <path d="M9 17H13" stroke="currentColor" stroke-width="2" stroke-linecap="round"/>
</svg>

