<svg width="24" height="24" viewBox="0 0 24 24" fill="none" xmlns="http://www.w3.org/2000/svg">
  <path d="M6.5 2C6.5 1.44772 6.94772 1 7.5 1H9.5C10.0523 1 10.5 1.44772 10.5 2V4H13.5V2C13.5 1.44772 13.9477 1 14.5 1H16.5C17.0523 1 17.5 1.44772 17.5 2V4H19C19.5523 4 20 4.44772 20 5V7C20 7.55228 19.5523 8 19 8H17.5V10H19C19.5523 10 20 10.4477 20 11V13C20 13.5523 19.5523 14 19 14H17.5V16H19C19.5523 16 20 16.4477 20 17V19C20 19.5523 19.5523 20 19 20H17.5V22C17.5 22.5523 17.0523 23 16.5 23H14.5C13.9477 23 13.5 22.5523 13.5 22V20H10.5V22C10.5 22.5523 10.0523 23 9.5 23H7.5C6.94772 23 6.5 22.5523 6.5 22V20H5C4.44772 20 4 19.5523 4 19V17C4 16.4477 4.44772 16 5 16H6.5V14H5C4.44772 14 4 13.5523 4 13V11C4 10.4477 4.44772 10 5 10H6.5V8H5C4.44772 8 4 7.55228 4 7V5C4 4.44772 4.44772 4 5 4H6.5V2Z" stroke="currentColor" stroke-width="2" stroke-linecap="round" stroke-linejoin="round"/>
  <path d="M8 6H16" stroke="currentColor" stroke-width="2" stroke-linecap="round"/>
  <path d="M8 10H16" stroke="currentColor" stroke-width="2" stroke-linecap="round"/>
  <path d="M8 14H16" stroke="currentColor" stroke-width="2" stroke-linecap="round"/>
  <path d="M8 18H16" stroke="currentColor" stroke-width="2" stroke-linecap="round"/>
</svg>

